<svg width="28" height="33" fill="none" xmlns="http://www.w3.org/2000/svg"><path d="M14.15.25h-.1L.5 1.59V25.22l13.55 7.654 13.45-7.654V1.589L14.15.25Zm11.443 11.577L14.05 5.32v-.096h-.1l-.1-.096v.096L2.406 11.827V3.216L13.95 2.068l11.643 1.148v8.61ZM13.95 6.756l11.543 6.41-4.517 2.488-7.127-4.019v1.34l5.922 3.348-.903.479-5.019-2.87v1.339l3.815 2.2-.803.479-3.012-1.722v1.34l1.908 1.051-1.807 1.053-11.443-6.41L13.95 6.756Zm-11.543 7.94 11.442 6.507v.957L5.92 17.663v1.34l8.03 4.592v1.052L5.92 20.15v1.34l8.03 4.592 8.13-4.688V16.42l3.413-1.914v9.568L13.95 30.674 2.407 24.17v-9.472Z" fill="#000"/></svg>