<svg width="48" height="11" viewBox="0 0 48 11" fill="none" xmlns="http://www.w3.org/2000/svg">
<path d="M0.577781 5.45H8.75378V6.486H0.577781V5.45ZM22.3875 5.618H26.2795V6.654H22.3875V5.618ZM15.9755 3.644L15.2195 2.174H15.1635L15.3315 3.588V10H14.2115V0.0459996H14.8275L19.2515 6.528L19.9655 7.928H20.0355L19.8815 6.584V0.199999H21.0015V10.154H20.3575L15.9755 3.644ZM22.1215 2.412C22.1215 1.992 22.1775 1.63267 22.2895 1.334C22.4015 1.03533 22.5508 0.788 22.7375 0.591999C22.9335 0.396 23.1622 0.256 23.4235 0.172C23.6942 0.0786664 23.9835 0.0319998 24.2915 0.0319998C24.5995 0.0319998 24.8842 0.0739998 25.1455 0.158C25.4162 0.242 25.6448 0.377333 25.8315 0.564C26.0275 0.750666 26.1815 0.997999 26.2935 1.306C26.4055 1.60467 26.4615 1.97333 26.4615 2.412C26.4615 2.85067 26.4055 3.224 26.2935 3.532C26.1815 3.83067 26.0275 4.07333 25.8315 4.26C25.6448 4.44667 25.4162 4.582 25.1455 4.666C24.8842 4.75 24.5995 4.792 24.2915 4.792C23.9835 4.792 23.6942 4.75 23.4235 4.666C23.1622 4.582 22.9335 4.44667 22.7375 4.26C22.5508 4.07333 22.4015 3.83067 22.2895 3.532C22.1775 3.224 22.1215 2.85067 22.1215 2.412ZM23.1575 2.412C23.1575 2.972 23.2555 3.37333 23.4515 3.616C23.6568 3.85867 23.9368 3.98 24.2915 3.98C24.4688 3.98 24.6275 3.95667 24.7675 3.91C24.9075 3.854 25.0242 3.77 25.1175 3.658C25.2202 3.53667 25.2948 3.378 25.3415 3.182C25.3975 2.97667 25.4255 2.72 25.4255 2.412C25.4255 2.104 25.3975 1.852 25.3415 1.656C25.2948 1.45067 25.2202 1.292 25.1175 1.18C25.0242 1.05867 24.9075 0.974667 24.7675 0.928C24.6275 0.872 24.4688 0.843999 24.2915 0.843999C23.9368 0.843999 23.6568 0.955999 23.4515 1.18C23.2555 1.39467 23.1575 1.80533 23.1575 2.412ZM28.8616 8.964H30.8216V2.188L30.9616 1.362L30.4016 2.02L28.8616 3.126L28.3296 2.412L31.4096 0.0319998H31.9136V8.964H33.8316V10H28.8616V8.964ZM39.2418 5.45H47.4178V6.486H39.2418V5.45Z" fill="white"/>
</svg>
