<svg xmlns="http://www.w3.org/2000/svg">
    <symbol viewBox="0 0 82 68" id="icon-login">
      <path d="M76.5286 45.3324H5.36029C2.8336 45.3324 0.833313 47.3034 0.833313 49.57V53.0192C0.833313 55.2858 2.8336 57.1582 5.36029 57.1582H6.41307V58.1437C6.41307 63.5639 11.1506 67.9 16.8356 67.9H65.0532C70.8435 67.9 75.4758 63.4653 75.4758 58.1437V57.1582H76.5286C78.95 57.1582 81.0555 55.2858 81.0555 52.9206V49.4714C81.0555 47.3034 79.0553 45.3324 76.5286 45.3324ZM72.4227 58.1437C72.4227 61.8886 69.1591 64.9436 65.1585 64.9436H16.7304C12.7298 64.9436 9.46615 61.8886 9.46615 58.1437V57.1582H72.4227V58.1437ZM77.8972 52.9206C77.8972 53.6105 77.2655 54.2018 76.5286 54.2018H5.36029C4.62334 54.2018 3.99167 53.6105 3.99167 52.9206V49.4714C3.99167 48.8801 4.62334 48.2889 5.36029 48.2889H76.6338C77.3708 48.2889 78.0025 48.8801 78.0025 49.57V52.9206H77.8972Z" fill="#81B3D2"/>
      <path d="M17.8885 37.3496L23.5735 41.2915L29.3639 37.3496L35.1542 41.2915L40.9445 37.3496L46.6295 41.2915L52.4198 37.3496L58.2102 41.2915L64.0005 37.3496L69.7908 41.2915L76.4233 36.6597L74.6336 34.2946L69.7908 37.5467L64.0005 33.6047L58.2102 37.5467L52.4198 33.6047L46.6295 37.5467L40.9445 33.6047L35.1542 37.5467L29.3639 33.6047L23.5735 37.5467L17.8885 33.6047L12.0982 37.5467L7.25536 34.2946L5.36035 36.6597L12.0982 41.2915L17.8885 37.3496Z" fill="#81B3D2"/>
      <path d="M75.4757 30.6486C75.4757 30.0573 75.581 28.0864 75.4757 27.6922C74.7388 12.3186 59.5787 0 40.9444 0C22.3101 0 7.04469 12.3186 6.30774 27.6922C6.30774 28.0864 6.30774 30.0573 6.30774 30.6486H75.4757ZM40.9444 2.95646C57.7889 2.95646 71.6857 13.9939 72.3174 27.6922H9.46609C10.203 13.9939 24.0998 2.95646 40.9444 2.95646Z" fill="#81B3D2"/>
      <path d="M40.9444 16.7532C42.1073 16.7532 43.05 15.8708 43.05 14.7823C43.05 13.6937 42.1073 12.8113 40.9444 12.8113C39.7816 12.8113 38.8389 13.6937 38.8389 14.7823C38.8389 15.8708 39.7816 16.7532 40.9444 16.7532Z" fill="#81B3D2"/>
      <path d="M32.5221 11.924C33.685 11.924 34.6277 11.0416 34.6277 9.95303C34.6277 8.86449 33.685 7.98206 32.5221 7.98206C31.3593 7.98206 30.4166 8.86449 30.4166 9.95303C30.4166 11.0416 31.3593 11.924 32.5221 11.924Z" fill="#81B3D2"/>
      <path d="M49.3667 11.924C50.5296 11.924 51.4723 11.0416 51.4723 9.95303C51.4723 8.86449 50.5296 7.98206 49.3667 7.98206C48.2039 7.98206 47.2612 8.86449 47.2612 9.95303C47.2612 11.0416 48.2039 11.924 49.3667 11.924Z" fill="#81B3D2"/>
      </symbol>
      <symbol viewBox="0 0 81 73" fill="none" id="icon-house">
        <path d="M31.9574 65.3H48.9787V41.4H31.9574V65.3ZM45.8936 62.4H35.0425V44.3H45.7872V62.4H45.8936Z" fill="#81B3D2"/>
        <path d="M77.8085 39.4L80.0425 37.3L69.5106 27.4V0.4H54.8298V13.6L40.2553 0L0.574463 37.4L2.80851 39.5L11.1064 31.7V69.5H6.95744V72.4H74.9362V69.5H69.5106V31.6L77.8085 39.4ZM57.9149 3.4H66.3191V24.5L57.9149 16.6V3.4ZM66.4255 69.4H14.2979V28.7L40.2553 4.2L66.3191 28.7V69.4H66.4255Z" fill="#81B3D2"/>
        <path d="M32.2766 27.2C32.2766 31.5 36 35 40.4681 35C45.0426 35 48.766 31.5 48.766 27.2C48.766 22.9 45.0426 19.5 40.4681 19.5C35.8936 19.5 32.2766 22.9 32.2766 27.2ZM40.4681 22.2C43.3404 22.2 45.7873 24.4 45.7873 27.2C45.7873 29.9 43.4468 32.2 40.4681 32.2C37.5958 32.2 35.149 30 35.149 27.2C35.149 24.5 37.5958 22.2 40.4681 22.2Z" fill="#81B3D2"/>
        <path d="M21.7447 41.4H18.5532V45.3H21.7447V41.4Z" fill="#81B3D2"/>
        <path d="M28.0213 41.4H24.8298V45.3H28.0213V41.4Z" fill="#81B3D2"/>
        <path d="M21.7447 47.4H18.5532V51.3H21.7447V47.4Z" fill="#81B3D2"/>
        <path d="M28.0213 47.4H24.8298V51.3H28.0213V47.4Z" fill="#81B3D2"/>
        <path d="M55.6809 41.4H52.4894V45.3H55.6809V41.4Z" fill="#81B3D2"/>
        <path d="M62.0639 41.4H58.8724V45.3H62.0639V41.4Z" fill="#81B3D2"/>
        <path d="M55.6809 47.4H52.4894V51.3H55.6809V47.4Z" fill="#81B3D2"/>
        <path d="M62.0639 47.4H58.8724V51.3H62.0639V47.4Z" fill="#81B3D2"/>
      </symbol>
      <symbol viewBox="0 0 67 75" id="icon-souvenir">
        <path d="M64.016 22.1167H63.9104H38.2583C52.615 15.3189 53.7762 11.0202 53.2484 8.62098C52.0872 4.72221 47.3368 1.72316 42.9031 3.32266C37.0971 5.42199 35.5136 13.6194 33.9302 19.5175C31.9245 13.5194 30.0243 5.92183 25.485 2.02307C24.2183 0.923414 22.3181 -0.176239 19.4679 0.0236982C15.2453 0.423572 9.22814 5.32202 11.7617 10.8203C14.0841 16.1186 21.7903 19.5175 26.9629 22.2167H3.42211C1.73308 22.2167 0.466309 23.5163 0.466309 25.0158V36.2123C0.466309 37.8118 1.83864 39.0114 3.42211 39.0114H3.7388V75H63.9104V39.0114H64.016C65.705 39.0114 66.9718 37.7118 66.9718 36.2123V25.0158C66.9718 23.4163 65.5994 22.1167 64.016 22.1167ZM44.5922 5.82187C46.809 5.52196 49.7648 7.12146 50.0815 9.02085C50.5038 11.72 46.5979 14.2192 44.8033 15.3189C42.1642 17.0183 39.6306 17.918 37.2027 19.3176C38.0472 15.6188 39.8418 6.42168 44.5922 5.82187ZM20.7346 15.6188C18.4122 14.1192 13.9785 11.2202 14.0841 7.9212C14.1897 4.32234 20.1013 1.42326 23.2682 4.1224C27.2796 7.42136 29.1798 15.1189 30.6577 20.5172C27.2796 18.9177 24.1127 17.7181 20.7346 15.6188ZM26.9629 72.0009H6.80016V39.0114H26.9629V72.0009ZM26.9629 36.0123H3.63324V25.1158H26.9629V36.0123ZM37.5194 72.0009H30.0243V25.1158H37.5194V72.0009ZM60.7435 72.0009H40.6863V39.0114H60.8491V72.0009H60.7435ZM63.8049 36.0123H40.6863V25.1158H63.8049V36.0123Z" fill="#81B3D2"/>
      </symbol>
</svg>

